<?xml version="1.0" encoding="utf-8"?>
<!-- Generator: Adobe Illustrator 23.0.1, SVG Export Plug-In . SVG Version: 6.00 Build 0)  -->
<svg version="1.1" id="Layer_1" xmlns="http://www.w3.org/2000/svg" xmlns:xlink="http://www.w3.org/1999/xlink" x="0px" y="0px"
	 viewBox="0 0 1436.6 143.7" style="enable-background:new 0 0 1436.6 143.7;" xml:space="preserve">
<style type="text/css">
	.st0{fill:#FFFFFF;}
</style>
<title>svlogo</title>
<g>
	<g id="Layer_1-2">
		<path class="st0" d="M1340.4,0c-17.5,15.6-27.5,38-27.5,61.4c0,2.8,0.2,5.6,0.5,8.3c17.6-5.6,36.4-5.6,54,0
			c0.3-2.8,0.5-5.5,0.5-8.3C1367.9,38,1357.9,15.6,1340.4,0z"/>
		<path class="st0" d="M1145.2,40h15.1l15.4,52.1c1.2,3.8,1.8,7.9,1.9,7.9h0.3c0.5-2.7,1.1-5.3,1.9-7.9l16.2-52h13.1l16,52
			c1.2,3.8,2.1,7.9,2.1,7.9h0.3c0.4-2.7,1-5.3,1.8-7.9l15.6-52.1h15l-23.9,74.3h-15.7l-15.4-47.7c-1.2-3.8-2.1-8.1-2.1-8.1h-0.3
			c0,0-0.9,4.3-2.1,8.1l-15.3,47.7h-15.9L1145.2,40z"/>
		<path class="st0" d="M916.3,38.3c21,0,32.2,15.6,32.2,34.8c0,1.9-0.4,6.2-0.4,6.2h-54.2c0.7,16.3,12.3,24.5,25.5,24.5
			c12.8,0,22-8.7,22-8.7l5.9,10.4c-8,6.8-18.2,10.6-28.8,10.6c-23.3,0-39.3-16.9-39.3-38.9C879.2,53.6,895.2,38.3,916.3,38.3z
			 M934,68.5c-0.4-12.8-8.4-18.9-18-18.9c-10.9,0-19.7,6.8-21.7,18.9L934,68.5z"/>
		<path class="st0" d="M845.7,10.7H860v80.9c0,9,3.5,10.6,7.9,10.6c0.8,0,1.7-0.1,2.5-0.2v12.6c-1.6,0.2-3.1,0.3-4.7,0.3
			c-8.1,0-20-2.2-20-20.8L845.7,10.7z"/>
		<path class="st0" d="M531.8,95.1c5.8,5.4,13.4,8.5,21.3,8.7c6.2,0,12.3-3.2,12.3-9.2c0-13.7-38.2-10.9-38.2-35.1
			c0-13.5,12-21.1,26.9-21.1c16.3,0,23.9,8.2,23.9,8.2l-5.7,10.7c0,0-6.6-6.6-18.3-6.6c-6.2,0-12.2,2.6-12.2,9.1
			c0,13.4,38.2,10.4,38.2,34.8c0,12.3-10.6,21.6-26.9,21.6c-18.2,0-28.2-10.9-28.2-10.9L531.8,95.1z"/>
		<path class="st0" d="M629.9,40h13.8v9.8c0,1.8-0.1,3.6-0.3,5.4h0.3c3.5-8.7,14-17,25.5-17c12.5,0,19.8,5.7,22.3,16.9h0.3
			c4.9-10.2,15.1-16.7,26.4-16.9c16.7,0,24.5,9.5,24.5,28.5v47.6h-14.2V69.9c0-10.4-2.1-18.7-13.2-18.7c-10.4,0-18.2,8.8-20.8,18.9
			c-0.7,3.4-1.1,6.8-1,10.3v33.9h-14.3V69.9c0-9.7-1.5-18.7-12.9-18.7c-10.9,0-18.5,9-21.3,19.5c-0.7,3.2-1,6.4-0.9,9.7v33.9h-14.2
			V40z"/>
		<path class="st0" d="M760.4,40h13.1v6.3c0,1.8-0.1,3.6-0.3,5.4h0.3c0,0,6.3-13.5,25-13.5c20,0,32.6,15.9,32.6,38.9
			c0,23.6-14.2,38.9-33.6,38.9c-16.3,0-22.8-12.2-22.8-12.2h-0.3c0,0,0.3,2.6,0.3,6.5v33.3h-14.3V40z M795.2,103.9
			c11.8,0,21.4-9.7,21.4-26.6c0-16.2-8.7-26.6-21-26.6c-11.2,0-21.4,7.8-21.4,26.7C774.2,90.7,781.5,103.9,795.2,103.9L795.2,103.9z
			"/>
		<path class="st0" d="M596.3,40h14.2v74.3h-14.2V40z"/>
		<circle class="st0" cx="603.5" cy="19.5" r="8.8"/>
		<path class="st0" d="M1105.7,38.3c21,0,32.2,15.6,32.2,34.8c0,1.9-0.4,6.2-0.4,6.2h-54.2c0.7,16.3,12.3,24.5,25.6,24.5
			c12.8,0,22-8.7,22-8.7l5.9,10.4c-8,6.8-18.2,10.6-28.8,10.6c-23.3,0-39.3-16.9-39.3-38.9C1068.6,53.6,1084.6,38.3,1105.7,38.3z
			 M1123.3,68.5c-0.4-12.8-8.4-18.9-17.9-18.9c-10.9,0-19.7,6.8-21.7,18.9H1123.3z"/>
		<path class="st0" d="M955.8,40H971l18,50.2c1.5,4.1,2.3,10.1,2.5,10.1h0.3c0.2,0,1.2-6,2.6-10.1l18.1-50.2h15l-27.5,74.3h-16.4
			L955.8,40z"/>
		<path class="st0" d="M1040.9,40h14.2v74.3h-14.2V40z"/>
		<circle class="st0" cx="1048" cy="19.5" r="8.8"/>
		<path class="st0" d="M1430.1,115.7c3.6-0.1,6.7,2.8,6.8,6.4s-2.8,6.7-6.4,6.8c-3.6,0.1-6.7-2.8-6.8-6.4c0-0.1,0-0.1,0-0.2
			C1423.6,118.7,1426.5,115.7,1430.1,115.7C1430.1,115.7,1430.1,115.7,1430.1,115.7z M1430.1,127.7c3,0.2,5.5-2.1,5.7-5.1
			c0.2-3-2.1-5.5-5.1-5.7s-5.5,2.1-5.7,5.1c0,0.1,0,0.2,0,0.3C1424.9,125.2,1427.2,127.5,1430.1,127.7
			C1430.1,127.6,1430.1,127.6,1430.1,127.7L1430.1,127.7z M1427.9,118.8h2.6c1.1-0.1,2.1,0.7,2.1,1.8c0,0.1,0,0.2,0,0.2
			c0,0.8-0.5,1.6-1.2,1.8l0,0c0.1,0.1,0.2,0.2,0.2,0.4l1.3,2.5h-1.4l-1.3-2.6h-1.1v2.6h-1.3L1427.9,118.8z M1430.2,122.1
			c0.6,0,1.1-0.4,1.1-1c0-0.1,0-0.1,0-0.2c0.1-0.5-0.3-1-0.9-1.1c-0.1,0-0.1,0-0.2,0h-1.1v2.3H1430.2z"/>
		<path class="st0" d="M1373.7,80.7c-3.9,18.1-13.4,34.6-27,47.2c21.5,15.6,49.1,19.9,74.3,11.6
			C1415.7,113.5,1398.1,91.5,1373.7,80.7z"/>
		<path class="st0" d="M1259.7,139.6c25.2,8.3,52.8,4,74.3-11.6c-13.6-12.6-23.1-29.1-27-47.2
			C1282.7,91.6,1265.1,113.5,1259.7,139.6z"/>
		<path class="st0" d="M1316.2,78.7c3.5,16.3,12,31,24.2,42.3c12.2-11.3,20.7-26.1,24.2-42.3C1348.8,73.6,1331.9,73.6,1316.2,78.7z"
			/>
		<path class="st0" d="M0.6,105.3h9.5V65.2c0.1-1.3-0.8-2.4-2.1-2.5c-0.2,0-0.4,0-0.6,0H0v-9h13.7c5.2,0,7.7,2.3,7.7,6.7v3.1
			c0,1.2-0.1,2.4-0.4,3.5h0.2c3-7.2,11.7-14.8,21.6-14.8s15.7,4.4,17.8,14.3h0.2c3.4-7.6,11.8-14.3,21.7-14.3
			c13.4,0,19.8,7.8,19.8,23.3v29.9h9.6v9H90.7V78c0-8.5-1.6-15.2-10.7-15.2c-11.4,0-17.9,11.6-17.9,23.6v19h9.5v9H50.5V78
			c0-7.9-1.2-15.2-10.5-15.2c-11.5,0-18.2,12.2-18.2,24.1v18.5h9.6v9H0.6V105.3z"/>
		<path class="st0" d="M153.5,77h3.8v-2.2c0-9.6-5.5-13-13-13c-9.6,0-17.4,5.9-17.4,5.9l-4.7-8.3c6.7-4.8,14.8-7.3,23-7.2
			c15.5,0,23.6,8,23.6,23.4v27.1c-0.2,1.3,0.7,2.5,2,2.6c0.2,0,0.4,0,0.6,0h6.1v9h-12.1c-5.4,0-7.6-2.6-7.6-6.6v-0.8
			c0-1.3,0.1-2.7,0.5-4h-0.2c0,0-5.3,12.8-20,12.8c-10.1,0-20.2-5.9-20.2-18.3C118.1,78.4,143.4,77,153.5,77z M140.8,106.8
			c10.3,0,16.7-10.6,16.7-19.7v-2.5h-3c-5.5,0-24.6,0.2-24.6,11.9C129.9,101.9,133.8,106.8,140.8,106.8L140.8,106.8z"/>
		<path class="st0" d="M210.2,52.2c13.8,0,18.8,10.2,18.8,10.2h0.2c-0.2-1.5-0.4-3-0.4-4.6V38.7h-10.1v-9h21.7v73
			c-0.2,1.3,0.7,2.5,2,2.6c0.2,0,0.4,0,0.6,0h6.1v9h-12.1c-5.4,0-7.6-2.6-7.6-6.6v-0.8c0-1.1,0.1-2.2,0.4-3.2h-0.2
			c0,0-4.9,12.1-20.5,12.1c-16.3,0-26.5-13-26.5-31.8C182.6,64.7,193.9,52.2,210.2,52.2z M211.7,105.7c9,0,17.5-6.5,17.5-21.6
			c0-11.2-5.6-21.7-17.1-21.7c-9.7,0-17.5,7.8-17.5,21.6C194.5,97.2,201.6,105.7,211.7,105.7L211.7,105.7z"/>
		<path class="st0" d="M284.9,52.2c17.3,0,26.3,12.7,26.3,28.4c0,1.6-0.4,4.4-0.4,4.4h-44.4c0.7,13.4,10.2,20.6,21,20.6
			c10.5,0,18.1-6.8,18.1-6.8l4.8,8.5c-6.7,5.5-15,8.4-23.6,8.4c-19.1,0-32.1-13.8-32.1-31.8C254.5,64.7,267.6,52.2,284.9,52.2z
			 M299.2,77.6c-0.4-10.7-6.8-16.2-14.5-16.2c-8.9,0-16.1,6-17.8,16.2H299.2z"/>
		<path class="st0" d="M356.4,38.7h-10.2v-9H368v28.1c0,1.7-0.1,3.3-0.4,5h0.2c0,0,5.4-10.6,19.5-10.6c16.4,0,26.8,13,26.8,31.8
			c0,19.3-11.6,31.8-27.7,31.8c-8,0.2-15.4-4-19.2-11H367c0.2,1.6,0.4,3.2,0.4,4.8v4.8h-11L356.4,38.7z M384.9,105.7
			c9.5,0,17.4-7.8,17.4-21.6c0-13.2-7.1-21.7-17.1-21.7c-9,0-17.5,6.4-17.5,21.8C367.6,95,373.3,105.7,384.9,105.7L384.9,105.7z"/>
		<path class="st0" d="M433,129.8c5.2,0,9.1-3.6,11.2-8.4l2.5-6l-21.2-52.8h-7.7v-9h27.7v9h-8L451,98.8c0.5,1.7,0.9,3.5,1.1,5.3h0.4
			c0.3-1.8,0.8-3.6,1.4-5.3l13.4-36.1h-7.8v-9h26.9v9h-7.6l-24,61.3c-4.1,10.3-12,15.6-21.4,15.6c-4.6,0-9.2-1.3-13.1-3.8l4-8.8
			C426.9,128.8,429.9,129.8,433,129.8z"/>
	</g>
</g>
</svg>
